<svg xmlns="http://www.w3.org/2000/svg" data-name="Ebene 1" viewBox="0 0 100 100" x="0px" y="0px"><path d="M63.37,13.79c-7.53-2.13-14.42-2.7-20.51-1.68a21,21,0,0,0-11.07,5.13,21.42,21.42,0,0,0-5.34,8.66l-.24.69c-.25.74-.52,1.47-.79,2.21A37.65,37.65,0,0,0,24,33.34a10.87,10.87,0,0,0-.11,4.5c.12.61.26,1.13.4,1.61a3.56,3.56,0,0,1-.13,3.21,23.33,23.33,0,0,1-2.94,4.53c-.16.2-.35.4-.54.61-1,1.12-2.47,2.66-2,4.69A4.81,4.81,0,0,0,21.49,56l.22.08a2.72,2.72,0,0,1,.6.26.55.55,0,0,1,0,.12c0,.42-.07,1-.12,1.49-.13,1.14-.21,1.83.16,2.38a12.46,12.46,0,0,0,1,1.18,2.5,2.5,0,0,0-.53,1.78A4.08,4.08,0,0,0,24,65.18a6.83,6.83,0,0,1,.65.83,8.26,8.26,0,0,1-.28.94,8.61,8.61,0,0,0-.59,3.11c.19,2.74,2.37,4.57,6.47,5.43a31.37,31.37,0,0,0,7.28.46c.51,0,1.12,0,1.5,0A16.38,16.38,0,0,1,40,79.15c.12.55.24,1.1.38,1.59.6,2.2,1.78,6.71,1.78,6.71l.39,1.46,30-14.28-.36-1.06c0-.06-2.33-7-.56-11.65a39.68,39.68,0,0,1,3.6-6.29C78,51.38,81,46.58,81.37,41.9,81.83,35.12,81,18.79,63.37,13.79Zm15.5,27.94c-.28,4-3.19,8.55-5.76,12.54A41.31,41.31,0,0,0,69.29,61c-1.66,4.34-.44,10,.2,12.28l-25.32,12c-.4-1.51-1-3.86-1.41-5.27-.13-.46-.24-1-.35-1.48A15.69,15.69,0,0,0,41,74.25c-.41-.69-1.07-.82-2.34-.82l-1.17,0a28.29,28.29,0,0,1-6.7-.41c-4.33-.91-4.44-2.6-4.48-3.15a6.48,6.48,0,0,1,.47-2.15,6.19,6.19,0,0,0,.41-1.8,3.91,3.91,0,0,0-1.26-2.39c-.15-.17-.35-.41-.47-.58a2.28,2.28,0,0,1,.48-.51L27,61.6l-1-1c-.53-.53-1.14-1.17-1.43-1.5,0-.24.06-.62.09-.89a15.07,15.07,0,0,0,.14-1.77,2.82,2.82,0,0,0-2.27-2.73l-.19-.07a2.31,2.31,0,0,1-1.29-1.73c-.17-.72.66-1.62,1.39-2.41.22-.24.44-.47.63-.7a26.33,26.33,0,0,0,3.24-5,5.94,5.94,0,0,0,.32-5c-.12-.43-.25-.89-.35-1.43a8.07,8.07,0,0,1,.09-3.45,35.38,35.38,0,0,1,1.37-4.24c.29-.76.57-1.52.82-2.29l.22-.64h0a19.1,19.1,0,0,1,4.7-7.68,18.92,18.92,0,0,1,9.77-4.49c5.72-1,12.25-.4,19.41,1.63C78,20.54,79.4,34.06,78.87,41.73Zm-9.06-13a13.68,13.68,0,0,0-2.09-1.56,4.11,4.11,0,0,0,.53-2.29c-.1-1.75-1.28-3.34-3.41-4.57a11.49,11.49,0,0,0-6.64-1.69,7.83,7.83,0,0,0-5.49,2.82,2.65,2.65,0,0,0-.15-1,3.37,3.37,0,0,0-1.71-1.76,9.66,9.66,0,0,0-9.64.37,10,10,0,0,0-4.11,5.46,8.25,8.25,0,0,0-1.93,1,9.61,9.61,0,0,0-4,6.05,7.77,7.77,0,0,0,2.32,7c2.31,2.06,5.51,2.22,7.72,2.17l.47,0a2.22,2.22,0,0,0-1.27,1.47,2.27,2.27,0,0,0,.19,1.94,2.63,2.63,0,0,0,1.92,1.15,9.39,9.39,0,0,0,2.12,0c.42,0,.82,0,1.15,0,1.51.07,3,.08,4.43,0h.37a5.1,5.1,0,0,0,2.8,2.53,5.56,5.56,0,0,0,1.94.37,4.74,4.74,0,0,0,2.14-.5,6.85,6.85,0,0,0,2.6-2.46,3.45,3.45,0,0,0,.2-.32,13.73,13.73,0,0,0,3.57.12A10.71,10.71,0,0,0,73,36.29a7.88,7.88,0,0,0-.12-3.16A9.47,9.47,0,0,0,69.81,28.69ZM54.31,23.5a5.2,5.2,0,0,1,4.1-2.43,9.18,9.18,0,0,1,5.17,1.36c.79.46,2.11,1.39,2.18,2.55a1.85,1.85,0,0,1-.45,1.24,5.28,5.28,0,0,0-3.78.71,6.15,6.15,0,0,0-.62.5,14.13,14.13,0,0,0-1.84-.78A10.21,10.21,0,0,0,55.71,26a6,6,0,0,0-1.49.17l-.09-.52A2.82,2.82,0,0,1,54.31,23.5Zm8.82,11a7.11,7.11,0,0,1-1-1.68,4.16,4.16,0,0,1-.26-1.54,6.24,6.24,0,0,1,.58.8A5,5,0,0,1,63.13,34.46ZM53,29.81a7.45,7.45,0,0,1,.6.52,5.9,5.9,0,0,0-.16,1,6.15,6.15,0,0,0,.07,1.42l-.43,0-.74.08a3,3,0,0,1-.08-.66A3.75,3.75,0,0,1,53,29.81ZM51.5,24.44a7.11,7.11,0,0,0,.12,1.34l-.48-.28-.4-.22A6.7,6.7,0,0,0,51.5,24.44Zm-9-3.3a7.24,7.24,0,0,1,7.12-.28c.47.25.53.39.54.41a1,1,0,0,1-.09.52c-.84,2.43-3.88,3.5-6.33,3.12-.5-.07-1-.2-1.55-.33a16.25,16.25,0,0,0-2.33-.44A7.37,7.37,0,0,1,42.55,21.14ZM50.39,28a4.65,4.65,0,0,0-1.18.78h0a4.5,4.5,0,0,0-1.56,3.09A3.15,3.15,0,0,1,47,30.12a2.93,2.93,0,0,1,.76-2.39,1.57,1.57,0,0,1,1-.52h0a2.86,2.86,0,0,1,1.12.45Zm-11.2-1.35a11,11,0,0,1,2.46.4c.57.14,1.15.28,1.76.37a8.39,8.39,0,0,0,1.51.1,5.69,5.69,0,0,0-.44,2.89,5.39,5.39,0,0,0,2.33,4,6.21,6.21,0,0,0,2.91,1A6.22,6.22,0,0,0,51,36l.13,0,.14.18a16.1,16.1,0,0,1-2.18.78c-.67.2-1.34.38-2,.53a5.33,5.33,0,0,0-.28-1.06c-.76-1.89-2.46-2.89-4-3.78a10,10,0,0,1-2.59-1.91,5.25,5.25,0,0,1-1.06-3.3A6.4,6.4,0,0,1,39.19,26.61Zm2,11.66c-2.84.07-4.75-.42-6-1.53A5.24,5.24,0,0,1,33.66,32a7.06,7.06,0,0,1,3-4.44l0,0a7.76,7.76,0,0,0,1.64,4.84,11.78,11.78,0,0,0,3.23,2.47c1.33.79,2.48,1.46,2.92,2.57a2.07,2.07,0,0,1,.13.57A32.05,32.05,0,0,1,41.17,38.27Zm15.21,7.21a2.6,2.6,0,0,1-2.07,0,3.15,3.15,0,0,1-.74-.42,21.51,21.51,0,0,0,3.67-.74l.37.07A3.92,3.92,0,0,1,56.38,45.48Zm3-4.8a12,12,0,0,1-2.25,1.08h0a17.13,17.13,0,0,0-4.43-.4,2.78,2.78,0,0,0-1.49.46,2.13,2.13,0,0,0-.75,1h-.24c-1.37,0-2.8,0-4.26,0-.47,0-.95,0-1.42,0l-.61,0a2.53,2.53,0,0,0,.36-.12,4.31,4.31,0,0,0,2.39-2.39,1.67,1.67,0,0,0,.08-.2c1-.2,2-.45,3-.75a16.9,16.9,0,0,0,3.41-1.36l0,0a9.79,9.79,0,0,0,6.22,1.42l.13,0A8.6,8.6,0,0,1,59.36,40.68ZM59.88,37a7.92,7.92,0,0,1-1.72-1.06,6.18,6.18,0,0,1-1.38-1.52h0a4.33,4.33,0,0,0-.11-4.14h0a3.35,3.35,0,0,1,.44-.07,18.84,18.84,0,0,1,2.38,0,6.62,6.62,0,0,0,.33,3.51,11.3,11.3,0,0,0,2.61,3.79,3.47,3.47,0,0,1-.18.33l-.68-.18A2.26,2.26,0,0,0,59.88,37Zm10.68-1.06a8.24,8.24,0,0,1-7,6.66,9.85,9.85,0,0,1-2.17,0l.12-.33a11.49,11.49,0,0,0,1.8-1.67,3,3,0,0,0,1.43-.11,2.07,2.07,0,0,0,1.41-2.34,2.45,2.45,0,0,0-.77-1.23l-.06,0a8,8,0,0,0-.72-6.05,6.68,6.68,0,0,0-.61-.89A7,7,0,0,0,65.91,29a9.24,9.24,0,0,1,2.24,1.55,6.79,6.79,0,0,1,2.34,3.22A5.15,5.15,0,0,1,70.56,35.91Z"/></svg>